<svg width="30" height="42" viewBox="0 0 30 42" fill="none" xmlns="http://www.w3.org/2000/svg">
<g clip-path="url(#clip0_1_34)">
<path d="M16.7232 41.8819C14.4873 42.179 12.3833 41.9131 10.3328 41.2169C4.34499 39.1841 0.537259 34.1419 0.0400555 27.6199C0.0256945 27.4316 0.0218119 27.2421 0.019131 27.0531C0.00466821 26.0328 0.405887 25.4373 1.12727 25.4047C1.84904 25.372 2.25046 25.9613 2.35839 26.9568C2.48992 28.1699 2.59973 29.4103 2.93813 30.5705C4.71422 36.6601 10.5906 40.5323 16.6484 39.6803C22.7716 38.819 27.4946 33.4729 27.6178 27.1015C27.7074 22.4697 27.7029 17.8333 27.6179 13.2013C27.5109 7.37201 22.9716 2.68829 17.2178 2.32077C11.8941 1.98071 6.93804 6.12971 6.02612 11.6759C5.5161 14.7779 6.08173 17.6526 7.86763 20.1887C8.51431 21.107 9.42246 21.8443 10.273 22.5888C11.1622 23.3671 11.4027 23.9764 10.9104 24.6183C10.4222 25.2549 9.7801 25.2131 8.83284 24.4704C3.88641 20.5924 2.49338 14.7076 4.26114 9.23713C6.09229 3.57045 11.3334 -0.225319 16.9356 -0.0904922C22.7856 0.0502984 27.8381 4.05578 29.4199 9.87728C29.6881 10.8643 29.8263 11.9203 29.835 12.9462C29.877 17.8631 30.0045 22.7869 29.8145 27.6964C29.5946 33.3788 26.7945 37.6054 22.0142 40.2758C20.4555 41.1465 18.5512 41.3554 16.7232 41.8819Z" fill="#F9F9F9"/>
<path d="M18.3751 9.21932C19.1092 10.6355 19.0164 11.873 18.1489 12.8565C17.3314 13.7834 16.0805 14.0546 14.9753 13.5446C13.8953 13.0462 13.2167 11.8811 13.3321 10.6457C13.4449 9.43859 14.0689 8.57261 15.1659 8.16892C16.4262 7.70511 17.4943 8.09139 18.3751 9.21932Z" fill="#FBFBFB"/>
<path d="M23.6116 16.6388C24.9051 18.6193 24.9608 20.5786 23.8127 22.3121C22.9962 23.5448 22.0337 23.539 21.2287 22.2966C20.13 20.6012 20.1941 18.3136 21.3839 16.7564C22.115 15.7995 22.6514 15.7576 23.6116 16.6388Z" fill="#F9F9F9"/>
<path d="M12.1378 5.93474C13.1781 5.41598 14.1612 4.927 15.1564 4.46595C15.6603 4.23249 16.152 4.38263 16.2041 4.94761C16.2298 5.22578 15.8308 5.72227 15.5277 5.82988C11.2839 7.33657 9.16839 10.3433 9.0455 15.0404C9.037 15.3654 8.67534 15.9052 8.41232 15.9521C7.84557 16.0533 7.68599 15.5453 7.67918 15.0151C7.63026 11.2096 9.05948 8.17704 12.1378 5.93474Z" fill="#F4F4F4"/>
<path d="M24.9345 10.0153C25.619 11.9954 24.4857 13.735 22.7181 13.5347C21.7018 13.4195 20.8767 12.6567 20.6899 11.6597C20.495 10.6195 20.9382 9.60095 21.8084 9.08915C22.6867 8.57257 23.7448 8.70706 24.4985 9.44514C24.6506 9.5941 24.7662 9.783 24.9345 10.0153Z" fill="#F8F8F8"/>
</g>
<defs>
<clipPath id="clip0_1_34">
<rect width="30" height="42" fill="white"/>
</clipPath>
</defs>
</svg>
